HIERARCHY
ROOT Hips
{
	OFFSET 0.000000 0.000000 0.000000
	CHANNELS 6 Xposition Yposition Zposition Zrotation Yrotation Xrotation
	JOINT LHipJoint
	{
		OFFSET 0.000000 0.000000 0.000000
		CHANNELS 3 Zrotation Yrotation Xrotation
		JOINT LeftUpLeg
		{
			OFFSET 1.363060 -1.794630 0.839290
			CHANNELS 3 Zrotation Yrotation Xrotation
			JOINT LeftLeg
			{
				OFFSET 2.448110 -6.726130 0.000000
				CHANNELS 3 Zrotation Yrotation Xrotation
				JOINT LeftFoot
				{
					OFFSET 2.562200 -7.039590 0.000000
					CHANNELS 3 Zrotation Yrotation Xrotation
					JOINT LeftToeBase
					{
						OFFSET 0.157640 -0.433110 2.322550
						CHANNELS 3 Zrotation Yrotation Xrotation
						End Site
						{
							OFFSET 0.000000 0.000000 0.000000
						}
					}
				}
			}
		}
	}
	JOINT RHipJoint
	{
		OFFSET 0.000000 0.000000 0.000000
		CHANNELS 3 Zrotation Yrotation Xrotation
		JOINT RightUpLeg
		{
			OFFSET -1.305520 -1.794630 0.839290
			CHANNELS 3 Zrotation Yrotation Xrotation
			JOINT RightLeg
			{
				OFFSET -2.542530 -6.985550 0.000000
				CHANNELS 3 Zrotation Yrotation Xrotation
				JOINT RightFoot
				{
					OFFSET -2.568260 -7.056230 0.000000
					CHANNELS 3 Zrotation Yrotation Xrotation
					JOINT RightToeBase
					{
						OFFSET -0.164730 -0.452590 2.363150
						CHANNELS 3 Zrotation Yrotation Xrotation
						End Site
						{
							OFFSET 0.000000 0.000000 0.000000
						}
					}
				}
			}
		}
	}
	JOINT LowerBack
	{
		OFFSET 0.000000 0.000000 0.000000
		CHANNELS 3 Zrotation Yrotation Xrotation
		JOINT Spine
		{
			OFFSET 0.028270 2.035590 -0.193380
			CHANNELS 3 Zrotation Yrotation Xrotation
			JOINT Spine1
			{
				OFFSET 0.056720 2.048850 -0.042750
				CHANNELS 3 Zrotation Yrotation Xrotation
				JOINT Neck
				{
					OFFSET 0.000000 0.000000 0.000000
					CHANNELS 3 Zrotation Yrotation Xrotation
					JOINT Neck1
					{
						OFFSET -0.054170 1.746240 0.172020
						CHANNELS 3 Zrotation Yrotation Xrotation
						JOINT Head
						{
							OFFSET 0.104070 1.761360 -0.123970
							CHANNELS 3 Zrotation Yrotation Xrotation
							End Site
							{
								OFFSET 0.000000 0.000000 0.000000
							}
						}
					}
				}
				JOINT LeftShoulder
				{
					OFFSET 0.000000 0.000000 0.000000
					CHANNELS 3 Zrotation Yrotation Xrotation
					JOINT LeftArm
					{
						OFFSET 3.362410 1.200890 -0.311210
						CHANNELS 3 Zrotation Yrotation Xrotation
						JOINT LeftForeArm
						{
							OFFSET 4.983000 -0.000000 -0.000000
							CHANNELS 3 Zrotation Yrotation Xrotation
							JOINT LeftHand
							{
								OFFSET 3.483560 -0.000000 -0.000000
								CHANNELS 3 Zrotation Yrotation Xrotation
								JOINT LeftFingerBase
								{
									OFFSET 0.000000 0.000000 0.000000
									CHANNELS 3 Zrotation Yrotation Xrotation
									JOINT LeftHandIndex1
									{
										OFFSET 0.715260 -0.000000 -0.000000
										CHANNELS 3 Zrotation Yrotation Xrotation
										End Site
										{
											OFFSET 0.000000 0.000000 0.000000
										}
									}
								}
								JOINT LThumb
								{
									OFFSET 0.000000 0.000000 0.000000
									CHANNELS 3 Zrotation Yrotation Xrotation
									End Site
									{
										OFFSET 0.000000 0.000000 0.000000
									}
								}
							}
						}
					}
				}
				JOINT RightShoulder
				{
					OFFSET 0.000000 0.000000 0.000000
					CHANNELS 3 Zrotation Yrotation Xrotation
					JOINT RightArm
					{
						OFFSET -3.136600 1.374050 -0.404650
						CHANNELS 3 Zrotation Yrotation Xrotation
						JOINT RightForeArm
						{
							OFFSET -5.241900 -0.000000 -0.000000
							CHANNELS 3 Zrotation Yrotation Xrotation
							JOINT RightHand
							{
								OFFSET -3.444170 -0.000000 -0.000000
								CHANNELS 3 Zrotation Yrotation Xrotation
								JOINT RightFingerBase
								{
									OFFSET 0.000000 0.000000 0.000000
									CHANNELS 3 Zrotation Yrotation Xrotation
									JOINT RightHandIndex1
									{
										OFFSET -0.622530 -0.000000 -0.000000
										CHANNELS 3 Zrotation Yrotation Xrotation
										End Site
										{
											OFFSET 0.000000 0.000000 0.000000
										}
									}
								}
								JOINT RThumb
								{
									OFFSET 0.000000 0.000000 0.000000
									CHANNELS 3 Zrotation Yrotation Xrotation
									End Site
									{
										OFFSET 0.000000 0.000000 0.000000
									}
								}
							}
						}
					}
				}
			}
		}
	}
}
MOTION
Frames: 11
Frame Time: 0.008333
0.003663 -0.023050 0.109146 0.237559 -0.102219 -0.092518 -0.044770 0.037714 0.027546 0.367095 -0.773687 0.446881 0.000269 0.037066 0.032284 -0.101830 0.451274 -0.109366 0.000090 0.568966 1.563515 0.005471 -0.025013 0.023005 -0.370037 0.272831 0.459754 -0.032748 -0.089028 0.277587 -0.046050 -0.654859 -0.478634 -0.295757 1.075165 -3.093228 -0.416342 -0.037220 0.247418 -0.052235 0.049103 -0.033912 0.077427 0.026236 -0.196832 -0.030728 -0.040765 -0.106160 0.085672 -0.059952 0.005665 0.041618 -0.027655 0.046589 -0.027192 -0.019346 -0.015697 0.117465 0.301767 -0.403406 -0.009607 0.047567 0.008557 -0.005743 -0.004363 0.311834 0.211460 -0.037424 -0.059423 0.000000 0.000000 0.000000 0.140084 -0.038862 -0.095212 0.004910 0.029769 -0.000416 -0.107721 -0.085522 -0.129065 -0.448230 0.355426 -0.265148 0.014635 0.009634 0.188589 0.094317 -0.136609 0.003299 -0.000000 0.000000 0.000000 0.183736 -0.116269 -0.113649
-0.253571 -0.094815 0.465633 1.010835 1.321718 0.455971 0.201876 0.255853 0.131042 0.644264 -0.774844 1.737890 0.168159 0.062656 -0.231760 0.142266 1.115245 0.549112 0.031690 0.827829 1.272142 0.536229 0.104894 -0.022013 -0.026092 -0.283285 0.637678 -0.479583 -0.626856 2.810217 0.241763 0.903237 2.845603 0.046210 1.973608 -1.682600 0.018857 0.113576 0.920952 0.189100 0.453656 0.850671 0.559801 0.390388 1.159204 0.408595 0.427904 0.512162 0.266172 0.365136 0.843230 0.554818 0.247152 0.452528 0.415693 0.405933 0.062045 2.455791 1.414339 -1.169232 -0.192418 0.106899 0.012874 0.008672 0.088579 2.304945 1.525885 -1.863488 -1.386809 -0.242298 0.000000 0.000000 -5.153528 -8.505420 -7.492189 0.470355 0.377772 0.129631 1.739730 1.140175 0.656863 0.112236 1.388279 -0.861937 0.114597 0.108753 1.045299 6.678219 2.515210 4.544179 0.146704 0.000000 0.000000 8.293330 4.389300 7.567255
-0.174093 0.043955 2.321520 1.724736 2.006224 0.706684 0.400161 0.562734 0.359324 1.120770 -0.822713 2.869064 0.295862 0.139909 -0.336838 0.293211 1.886365 1.818094 0.090065 1.221745 1.183097 0.952070 0.140251 -0.095615 0.836841 -0.657930 1.295003 -0.921232 -1.323635 5.685121 0.463750 0.943196 4.406283 0.117158 2.151700 -1.628786 0.025032 -0.027298 0.715090 0.166627 0.458022 1.083048 0.590603 0.585739 1.775871 0.062814 0.431184 0.273681 0.132663 0.326115 1.128443 0.763136 0.365572 0.630891 0.608377 0.553012 0.057900 2.759639 1.750190 1.291561 -0.092676 0.396472 0.081506 -0.051331 0.069980 2.983482 1.601172 4.556932 -1.311007 -0.235200 0.000000 0.000000 -3.957290 -13.102510 -9.578361 -1.392584 0.414376 0.133544 0.318032 1.297085 0.054150 0.284669 2.222900 -1.862815 0.192502 0.167812 1.607306 11.455932 4.393417 8.207836 0.264318 0.000000 0.000000 14.455418 7.649933 12.780310
-0.195909 -0.218261 2.692681 1.989238 1.968491 0.777858 0.326484 0.620783 0.417511 1.024503 -1.407119 2.951596 0.240788 -0.225566 -1.550401 0.287893 2.224556 2.739556 0.060924 1.314000 0.389701 1.049276 0.042192 -0.368979 1.028004 -1.250134 1.347985 -1.563448 -2.285740 7.085650 0.415151 0.010399 5.501724 0.222366 2.463526 -0.599008 0.178340 -0.004822 0.879979 0.259034 0.602566 1.457656 0.720595 0.861282 2.542267 -0.228906 0.452219 0.037551 -0.086771 0.031743 1.113309 0.806819 0.397770 0.643299 0.631011 0.553630 0.008868 1.885955 1.661304 1.923938 -0.442005 0.124771 0.001952 -0.150536 -0.082831 1.670150 0.305512 7.222849 -2.830503 -0.488185 0.000000 0.000000 -6.779684 -20.881054 -13.728910 -3.141350 0.445845 -0.045438 -3.159006 1.151713 -0.960357 -0.274113 2.495538 -3.251842 0.211528 0.155609 1.505297 11.180679 4.061220 8.142582 0.278265 0.000000 0.000000 15.821273 8.203508 13.052963
-0.199161 -1.028216 -0.249952 1.363595 1.022749 0.635049 0.091386 0.510861 0.360932 0.680351 -2.210984 3.246438 0.190136 -0.574388 -2.904321 0.023411 1.812637 3.536242 -0.026851 1.091575 -0.941006 1.074240 -0.087523 -0.769055 1.519693 -1.512790 2.233727 -1.832184 -2.973127 9.239132 0.611898 -1.246114 6.736159 0.384995 2.849849 1.319327 0.376926 -0.013472 0.898347 0.338613 0.635409 1.425597 0.613441 1.010177 2.975634 -0.635617 0.456203 0.012004 -0.240043 -0.418712 0.929362 0.726570 0.415126 0.573937 0.554195 0.548603 -0.046125 0.404413 1.180127 2.183256 -0.371866 0.153181 0.007666 -0.168141 -0.106166 1.374824 -0.656990 10.791928 -2.029060 -0.402532 0.000000 0.000000 -2.252524 -12.560784 -2.951214 -3.628264 0.113759 -0.150120 -2.852985 0.885882 -1.393802 -0.932054 2.700378 -4.551205 0.229976 0.134665 1.338989 10.563392 3.768304 8.535051 0.296728 0.000000 0.000000 17.116804 8.631883 12.232258
0.046312 -0.765491 0.747529 1.646758 1.034654 0.442413 -0.063704 0.372385 0.327103 0.502282 -2.936110 4.150731 0.203330 -0.773198 -3.816045 -0.255952 1.845631 4.764480 -0.066514 0.979829 -1.690454 1.163813 -0.206002 -0.965357 3.402943 -1.025163 4.474708 -1.984475 -3.529313 10.787924 0.660709 -3.214710 6.269404 0.426697 2.846952 2.848121 0.390769 -0.037253 0.931381 0.342330 0.515669 1.071607 0.316331 1.036474 2.826922 -1.314166 0.286588 0.120487 -0.309312 -0.831821 0.816270 0.629524 0.372111 0.445083 0.423735 0.484224 -0.120939 -1.284348 0.617102 3.508382 -0.191662 0.121753 0.013091 -0.185306 -0.132325 1.228188 -1.337382 15.175940 -1.091039 -0.345150 0.000000 0.000000 1.544727 -4.373434 6.316792 -4.596540 -0.329165 -0.136857 -0.212217 0.382981 -1.742945 -2.016490 2.484484 -6.013658 0.190393 0.052558 0.626092 5.902868 1.943938 6.390714 0.244268 0.000000 0.000000 14.503552 6.859324 6.337972
0.124670 -0.658484 1.265279 2.101933 1.713616 0.850976 0.154314 0.328123 0.297745 0.331891 -3.689088 4.770588 0.143683 -0.889014 -4.385226 -0.254247 2.509993 6.160671 -0.120680 0.820698 -1.805581 1.380100 -0.285390 -1.255644 4.340192 -1.608070 4.433794 -2.658971 -4.559565 10.691411 0.327777 -5.873688 3.768230 0.320052 2.479103 2.184357 -0.022479 -0.203755 0.548031 0.233473 0.390889 0.891147 0.215858 1.238440 3.282475 -1.760712 0.293711 0.214085 -0.370661 -1.257935 0.696994 0.685433 0.339019 0.436251 0.438832 0.500920 -0.171756 -1.905029 0.600753 3.209079 -0.160064 -0.052628 -0.050979 -0.218184 -0.187663 0.830487 -1.592781 14.066238 -1.479885 -0.460745 0.000000 0.000000 -2.059944 -6.970829 4.365743 -4.238564 -0.641267 -0.258953 0.634120 0.036316 -1.775551 -2.815764 2.571505 -6.972641 0.189727 0.025198 0.406252 4.454339 1.659441 6.982809 0.260168 0.000000 0.000000 16.145264 7.386629 4.628048
0.241773 -0.634778 0.990530 2.384638 2.123709 0.884365 0.199089 0.274276 0.227435 0.100892 -4.502441 5.219974 0.058523 -1.081181 -5.087121 -0.277444 3.033832 7.343713 -0.236201 0.519351 -2.286386 1.450018 -0.424884 -1.536602 5.376457 -1.993524 4.681367 -3.285985 -5.480555 11.341489 0.175615 -7.048441 2.742926 0.373085 2.476699 2.337201 -0.214490 -0.297903 0.435460 0.173056 0.342033 0.756553 0.144811 1.434191 3.745707 -2.265434 0.284607 0.159460 -0.448821 -1.679639 0.591986 0.756971 0.322177 0.469534 0.504176 0.561428 -0.204799 -1.747486 0.955993 4.269803 0.207110 0.281475 0.009700 -0.211232 -0.128646 2.314518 -0.492648 15.831828 -0.626411 -0.284423 0.000000 0.000000 0.914424 -3.653746 6.294397 -3.624307 -0.692501 -0.336957 1.700065 -0.251086 -1.745201 -3.493755 2.747008 -7.892174 0.195732 0.001416 0.209555 3.131668 1.457034 7.698819 0.277408 0.000000 0.000000 18.029697 8.034570 3.305049
0.432196 -0.798026 0.688503 2.514212 2.374342 0.914338 0.284137 0.245547 0.139281 -0.187178 -5.352283 5.629875 -0.058474 -1.297338 -5.731894 -0.272382 3.753663 8.872822 -0.308674 0.380961 -2.134744 1.749259 -0.497138 -1.647945 6.452412 -1.991702 5.331148 -3.719750 -6.097696 13.221785 0.258409 -6.026472 3.890656 0.569920 2.847741 2.416997 -0.249995 -0.297091 0.653696 0.188732 0.472395 0.756829 0.180653 1.587264 4.349415 -2.641792 0.341156 0.048752 -0.552006 -2.135002 0.434909 0.737190 0.258947 0.445841 0.523396 0.524043 -0.267756 -2.463258 1.035025 4.715642 0.251566 0.160691 -0.001626 -0.258013 -0.192564 1.877241 -0.269190 16.499226 -0.629529 -0.254817 0.000000 0.000000 1.903567 -2.854069 5.018427 -3.653514 -0.868111 -0.437117 1.445282 -0.435568 -1.895566 -4.083038 2.939855 -8.587179 0.210677 -0.024888 -0.038012 1.690649 1.260304 8.539257 0.296022 0.000000 0.000000 20.140354 8.696362 1.851845
0.628777 -1.006185 0.654563 2.583335 2.642588 0.971627 0.393723 0.239605 0.077312 -0.315160 -6.065002 6.266506 -0.189522 -1.514704 -6.375535 -0.311769 4.327152 10.035727 -0.455042 0.131374 -2.392778 1.819641 -0.663744 -1.915771 6.417597 -2.551225 4.960002 -4.249352 -6.925869 14.307358 0.112386 -6.723679 3.013139 0.521750 2.594170 0.585858 -0.687899 -0.497866 0.231555 0.035796 0.461483 0.525486 0.084858 1.664398 4.871387 -3.138102 0.297421 -0.058511 -0.678404 -2.587191 0.292895 0.733669 0.214024 0.480661 0.624599 0.533369 -0.323087 -3.093712 1.180439 5.126697 0.176580 0.028040 0.002498 -0.305877 -0.255131 1.026453 -0.207884 15.902249 -1.270450 -0.304413 0.000000 0.000000 1.624998 -3.233672 2.204954 -3.571248 -0.838655 -0.538569 0.768453 -0.442293 -2.104251 -4.594200 3.170664 -9.298824 0.213744 -0.050681 -0.300023 0.409972 1.181205 9.361196 0.314002 0.000000 0.000000 22.249054 9.307082 0.444415
0.831546 -1.248225 0.621937 2.766073 2.907277 0.867395 0.389824 0.170136 0.003137 -0.437638 -6.735142 7.088844 -0.293884 -1.649018 -6.744350 -0.324604 4.957232 11.297742 -0.577023 -0.062220 -2.637265 1.956828 -0.818387 -2.144177 6.476749 -2.874966 4.872256 -4.758524 -7.780450 15.489666 0.028464 -7.468478 2.809759 0.569199 2.556403 -0.048347 -0.863874 -0.644647 -0.078207 -0.114218 0.449699 0.252005 -0.007037 1.728475 5.388349 -3.669720 0.210952 -0.198287 -0.835197 -3.087574 0.097064 0.689972 0.136433 0.460929 0.698294 0.556159 -0.380124 -3.792168 1.251012 5.270224 0.026931 -0.161219 0.004660 -0.328414 -0.300178 0.450382 -0.098614 15.437919 -1.716330 -0.355111 0.000000 0.000000 1.404250 -2.867363 0.238958 -3.403235 -0.761595 -0.599921 0.323435 -0.690132 -2.195134 -5.105983 3.359743 -10.127239 0.214394 -0.069994 -0.549505 -0.913710 1.184373 10.238543 0.333011 0.000000 0.000000 24.714703 9.977355 -0.638648
